<svg xmlns="http://www.w3.org/2000/svg" width="1em" height="1em" fill="currentColor" viewBox="0 0 24 24" class="absolute left-1/2 top-1/2 h-[1em] w-[1em] -translate-x-1/2 -translate-y-1/2"><path fill="currentColor" d="M23.498 5.66a3.027 3.027 0 0 0-2.121-2.152C19.505 3 12 3 12 3s-7.505 0-9.377.508A3.027 3.027 0 0 0 .502 5.66C0 7.558 0 11.517 0 11.517s0 3.96.502 5.857a2.981 2.981 0 0 0 2.121 2.117C4.495 20 12 20 12 20s7.505 0 9.377-.509a2.981 2.981 0 0 0 2.122-2.117C24 15.477 24 11.517 24 11.517s0-3.96-.502-5.857ZM9.546 15.112v-7.19l6.273 3.595-6.273 3.595Z"></path></svg>