<svg xmlns="http://www.w3.org/2000/svg" width="1em" height="1em" fill="currentColor" viewBox="0 0 24 24" class="absolute left-1/2 top-1/2 h-[1em] w-[1em] -translate-x-1/2 -translate-y-1/2"><path fill="#BC0000" d="M8.781.803a.91.91 0 0 1 1.244.004 36.235 36.235 0 0 1 3.49 3.774c.495-.647 1.056-1.352 1.663-1.927a.913.913 0 0 1 1.257.004c1.555 1.482 2.87 3.44 3.796 5.3.912 1.833 1.518 3.707 1.518 5.027 0 5.732-4.483 10.574-10.062 10.574-5.642 0-10.062-4.847-10.062-10.578 0-1.725.8-3.832 2.04-5.916C4.918 4.949 6.688 2.743 8.78.803Zm2.983 18.444c1.136 0 2.142-.314 3.09-.943 1.891-1.321 2.399-3.962 1.262-6.038a4.697 4.697 0 0 0-.44-.754l-2.273 2.641S9.747 9.499 9.491 9.185c-1.887 2.327-2.835 3.647-2.835 5.157 0 3.081 2.273 4.905 5.108 4.905Z"></path></svg>