<svg fill="none" viewBox="0 0 656 176" class="w-[6.875rem]"><title>TrashTalk Actu NBA &amp; Basket au quotidien</title><path d="M108.138 17.037h17.74v81.87h16.375v-81.87h17.739V3.392h-51.854v13.645zm109.992 31.51c1.952-3.346 2.927-7.192 2.927-11.537V26.179c0-6.911-2.312-12.437-6.935-16.579-4.624-4.141-10.841-6.21-18.651-6.208h-25.586v95.514h16.375V59.677h8.468l11.858 39.23h16.934l-13.703-42.488a20.424 20.424 0 008.313-7.873zm-13.448-11.68c0 2.808-.87 4.98-2.609 6.518-1.74 1.537-4.197 2.306-7.369 2.306h-8.444V17.037h8.444c3.172 0 5.629.77 7.369 2.31 1.739 1.539 2.609 3.716 2.609 6.532v10.987zm48.344-33.475l-17.815 95.514h16.28l3.534-21.15h17.508l3.534 21.15h16.587L274.839 3.392h-21.813zm4.155 60.379l6.598-39.94 6.598 39.93-13.196.01zm75.574-18.326c-5.849-5.198-9.801-9.187-11.855-11.966-2.053-2.78-3.077-5.675-3.07-8.689 0-3.008.77-5.288 2.31-6.84 1.539-1.55 3.743-2.319 6.611-2.305 2.873 0 5.08.957 6.622 2.872 1.542 1.915 2.312 4.69 2.309 8.327v2.841l15.693-1.5v-2.521c0-7.205-2.207-12.95-6.622-17.234-4.414-4.284-10.469-6.428-18.166-6.43-7.7 0-13.757 2.12-18.169 6.362-4.412 4.241-6.619 9.966-6.622 17.175a26.165 26.165 0 004.391 14.635c2.925 4.468 8.39 10.076 16.395 16.824 5.952 5.003 9.932 8.924 11.94 11.762 2.009 2.838 3.009 5.802 3.002 8.893 0 2.824-.949 5.058-2.848 6.7-1.899 1.641-4.44 2.462-7.621 2.462-3.287 0-5.853-1.002-7.7-3.008-1.847-2.006-2.772-4.745-2.777-8.218V71.93l-15.693 1.505v3.472c0 4.56 1.103 8.618 3.31 12.175a22.593 22.593 0 009.313 8.34c4.003 2.006 8.571 3.009 13.704 3.009 5.133 0 9.701-1.003 13.703-3.009a22.601 22.601 0 009.314-8.343c2.206-3.56 3.309-7.618 3.309-12.175.03-5.1-1.5-10.088-4.387-14.293-2.92-4.328-8.386-10.05-16.396-17.166zm67.404-1.8h-19.445V3.391h-16.375v95.514h16.375V57.29h19.445v41.617h16.375V3.392h-16.375v40.252zm78.805-40.253h-51.855v13.645h17.74v81.87h16.375v-81.87h17.74V3.392zm16.122 0l-17.818 95.514h16.283l3.534-21.15h17.508l3.534 21.15h16.587L516.899 3.392h-21.813zm4.155 60.379l6.598-39.912 6.594 39.929-13.192-.017zm61.598-60.38h-16.375v95.515h45.372V85.261h-28.997V3.391zm69.44 40.526l23.01-40.525h-17.603l-21.629 38.751V3.392h-16.375v95.514h16.375v-28.79l6.178-10.507 17.15 39.297h17.61l-24.716-54.989zM88.795 43.911l2.07-13.986H74.437L79.042 4H62.99L57.99 29.925H44.05L48.915 4h-16.31l-4.472 25.925H11.951l-2.59 13.986h15.724L22.05 62.673l-16.505-.13-2.098 13.775 15.597.263-4.192 22.933h16.334l3.954-23.196h14.369l-4.483 23.196h16.211l4.227-22.855h16.907l2.334-13.986H68.186l3.702-18.762h16.907zM52.531 62.673H37.586l3.834-18.762h14.4L52.53 62.673z" fill="currentColor"></path><path d="M655 113H0v62.084h655V113z" class="fill-brand-700"></path><path d="M23.11 130.029h4.489v25.414h8.006v4.236H23.11v-29.65zM41.07 130.029h12.75v4.237h-8.26v8.248h6.567v4.23H45.56v8.681h8.26v4.237H41.07v-29.633zM62.037 159.161a6.535 6.535 0 01-2.562-2.586 7.676 7.676 0 01-.91-3.769v-1.058l4.318-.467v1.102c-.05.91.22 1.809.765 2.541a2.591 2.591 0 002.118.931 2.868 2.868 0 002.095-.76 2.755 2.755 0 00.784-2.078 5.119 5.119 0 00-.825-2.753c-.55-.873-1.645-2.087-3.282-3.643-2.204-2.088-3.708-3.824-4.513-5.209a8.84 8.84 0 01-1.205-4.533c0-2.227.606-3.998 1.819-5.315 1.212-1.317 2.879-1.973 5-1.968 2.116 0 3.782.663 4.999 1.988 1.216 1.326 1.824 3.106 1.821 5.339v.761l-4.322.467v-.846c0-1.137-.212-1.999-.635-2.586a2.102 2.102 0 00-1.821-.887 2.302 2.302 0 00-1.822.72c-.423.478-.634 1.183-.634 2.115.007.962.302 1.899.846 2.692.566.859 1.653 2.094 3.26 3.704 2.205 2.204 3.71 3.977 4.514 5.318a8.426 8.426 0 011.204 4.435 7.709 7.709 0 01-.907 3.769 6.558 6.558 0 01-2.548 2.576 8.103 8.103 0 01-7.54 0h-.017zM103.708 130.029l-4.912 29.65h-6.004l-4.916-29.65h4.575l3.387 23.295 3.391-23.295h4.479zM121.509 159.669l-3.261-12.243h-2.33v12.243h-4.49v-29.64h7.031c2.145 0 3.851.642 5.118 1.927 1.266 1.285 1.902 3.001 1.907 5.148v3.261a7.779 7.779 0 01-.805 3.599 6.019 6.019 0 01-2.286 2.456l3.752 13.259-4.636-.01zm-5.591-16.476h2.33a2.504 2.504 0 002.753-2.756v-3.429a2.5 2.5 0 00-.72-2.033 2.5 2.5 0 00-2.033-.72h-2.33v8.938zM140.402 153.102h-4.831l-.972 6.567h-4.493l4.916-29.64h6.014l4.913 29.65h-4.575l-.972-6.577zm-.594-4.311l-1.821-12.414-1.822 12.414h3.643zM151.414 130.029h4.49v29.65h-4.49v-29.65zM162.808 130.029h12.749v4.237h-8.259v8.248h6.567v4.23h-6.567v8.681h8.259v4.237h-12.749v-29.633zM183.775 159.161a6.536 6.536 0 01-2.562-2.586 7.68 7.68 0 01-.911-3.769v-1.058l4.319-.467v1.102a3.9 3.9 0 00.764 2.541 2.595 2.595 0 002.119.931 2.869 2.869 0 002.095-.76 2.764 2.764 0 00.784-2.078 5.119 5.119 0 00-.825-2.753c-.551-.873-1.645-2.087-3.282-3.643-2.204-2.088-3.708-3.824-4.514-5.209a8.845 8.845 0 01-1.207-4.533c0-2.227.607-3.998 1.822-5.315 1.214-1.317 2.881-1.973 5.001-1.968 2.115 0 3.781.663 4.998 1.988 1.216 1.326 1.824 3.106 1.821 5.339v.761l-4.322.467v-.846c0-1.137-.212-1.999-.635-2.586a2.104 2.104 0 00-1.821-.887 2.302 2.302 0 00-1.822.72c-.423.478-.635 1.183-.635 2.115.008.962.303 1.899.846 2.692.567.859 1.654 2.094 3.262 3.704 2.204 2.204 3.708 3.977 4.513 5.318a8.455 8.455 0 011.204 4.435 7.673 7.673 0 01-.91 3.769 6.536 6.536 0 01-2.562 2.586 8.095 8.095 0 01-7.54 0v-.01zM211.476 158.144c-1.296-1.298-1.945-2.993-1.948-5.083v-16.435c0-2.09.65-3.784 1.948-5.083 1.299-1.298 2.993-1.947 5.083-1.947 2.09 0 3.785.649 5.083 1.947 1.299 1.299 1.949 2.993 1.952 5.083v3.473h-4.408v-3.473a2.836 2.836 0 00-.72-2.047 2.666 2.666 0 00-3.728 0 2.85 2.85 0 00-.72 2.047v16.435a2.85 2.85 0 00.72 2.047 2.663 2.663 0 003.728 0c.502-.56.761-1.296.72-2.047v-4.236h4.408v4.236c0 2.088-.651 3.782-1.952 5.083-1.3 1.301-2.995 1.95-5.083 1.948-2.087 0-3.782-.649-5.083-1.948zM231.471 158.12c-1.328-1.31-1.992-3.039-1.992-5.188v-16.18c0-2.144.664-3.874 1.992-5.188 1.328-1.315 3.064-1.971 5.209-1.968 2.147 0 3.885.656 5.213 1.968 1.328 1.312 1.991 3.042 1.989 5.188v16.18c0 2.149-.663 3.878-1.989 5.188-1.326 1.31-3.064 1.967-5.213 1.972-2.145 0-3.881-.657-5.209-1.972zm7.201-3.025c.513-.6.772-1.376.72-2.163v-16.18a3.016 3.016 0 00-.72-2.159 2.983 2.983 0 00-3.981 0 3.02 3.02 0 00-.72 2.159v16.18a3.027 3.027 0 00.72 2.163 2.99 2.99 0 003.981 0zM252.185 158.165c-1.301-1.287-1.951-2.961-1.951-5.022v-23.114h4.493v23.125a2.723 2.723 0 00.699 1.992 2.61 2.61 0 003.599 0 2.73 2.73 0 00.7-1.992v-23.125h4.404v23.125c0 2.065-.636 3.738-1.907 5.021-1.272 1.283-2.938 1.922-4.998 1.917-2.061 0-3.74-.642-5.039-1.927zM270.87 130.029h4.489v25.414h8.007v4.236H270.87v-29.65zM286.832 130.029h4.507v29.65h-4.507v-29.65zM300.682 159.161a6.555 6.555 0 01-2.562-2.586 7.679 7.679 0 01-.91-3.769v-1.058l4.322-.467v1.102c-.052.91.217 1.809.761 2.541a2.584 2.584 0 002.118.931 2.876 2.876 0 002.098-.76 2.763 2.763 0 00.781-2.078 5.08 5.08 0 00-.825-2.753c-.55-.873-1.644-2.087-3.282-3.643-2.204-2.088-3.707-3.824-4.51-5.209a8.848 8.848 0 01-1.194-4.533c0-2.227.607-3.998 1.822-5.315 1.214-1.317 2.881-1.973 5.001-1.968 2.117 0 3.783.663 4.998 1.988 1.214 1.326 1.822 3.106 1.822 5.339v.761l-4.323.467v-.846c0-1.137-.211-1.999-.634-2.586a2.1 2.1 0 00-1.822-.887 2.31 2.31 0 00-1.822.72c-.423.478-.634 1.183-.634 2.115.009.961.304 1.898.846 2.692.566.859 1.653 2.094 3.261 3.704 2.204 2.204 3.708 3.977 4.513 5.318a8.426 8.426 0 011.208 4.435 7.671 7.671 0 01-.931 3.759 6.555 6.555 0 01-2.562 2.586 8.112 8.112 0 01-7.543 0h.003zM319.957 159.161a6.517 6.517 0 01-2.562-2.586 7.653 7.653 0 01-.911-3.769v-1.058l4.319-.467v1.102a3.9 3.9 0 00.764 2.541 2.589 2.589 0 002.116.931 2.873 2.873 0 002.098-.76 2.764 2.764 0 00.784-2.078 5.119 5.119 0 00-.825-2.753c-.553-.873-1.648-2.087-3.286-3.643-2.201-2.088-3.704-3.824-4.51-5.209a8.845 8.845 0 01-1.207-4.533c0-2.227.607-3.998 1.822-5.315 1.214-1.317 2.88-1.973 4.997-1.968 2.118 0 3.784.663 4.998 1.988 1.215 1.326 1.822 3.106 1.822 5.339v.761l-4.319.467v-.846c0-1.137-.212-1.999-.635-2.586a2.097 2.097 0 00-1.821-.887 2.302 2.302 0 00-1.822.72c-.423.478-.638 1.184-.638 2.115.009.962.305 1.899.849 2.692.564.859 1.652 2.094 3.262 3.704 2.204 2.204 3.707 3.977 4.51 5.318a8.434 8.434 0 011.207 4.435 7.673 7.673 0 01-.91 3.769 6.542 6.542 0 01-2.559 2.576 8.102 8.102 0 01-7.539 0h-.004zM336.772 130.029h12.749v4.237h-8.259v8.248h6.567v4.23h-6.567v8.681h8.259v4.237h-12.749v-29.633zM357.739 159.161a6.536 6.536 0 01-2.562-2.586 7.68 7.68 0 01-.911-3.769v-1.058l4.323-.467v1.102c-.052.91.217 1.809.76 2.541a2.595 2.595 0 002.119.931 2.89 2.89 0 002.098-.76 2.763 2.763 0 00.781-2.078 5.08 5.08 0 00-.825-2.753c-.549-.873-1.642-2.087-3.282-3.643-2.204-2.088-3.707-3.824-4.51-5.209a8.837 8.837 0 01-1.208-4.533c0-2.227.606-3.998 1.818-5.315 1.213-1.317 2.88-1.973 5.002-1.968 2.119 0 3.785.663 4.997 1.988 1.213 1.326 1.82 3.106 1.822 5.339v.761l-4.322.467v-.846c0-1.137-.212-1.999-.635-2.586a2.104 2.104 0 00-1.821-.887 2.302 2.302 0 00-1.822.72c-.423.478-.635 1.183-.635 2.115.01.961.304 1.898.846 2.692.567.859 1.654 2.094 3.262 3.704 2.204 2.204 3.708 3.977 4.513 5.318a8.426 8.426 0 011.208 4.435 7.674 7.674 0 01-.911 3.769 6.54 6.54 0 01-2.566 2.586 8.088 8.088 0 01-7.539 0v-.01zM384.171 130.029h7.031c2.145 0 3.851.642 5.117 1.927 1.267 1.285 1.902 3.001 1.904 5.148v15.5c0 2.147-.635 3.863-1.904 5.148-1.269 1.285-2.974 1.927-5.117 1.927h-7.031v-29.65zm6.823 25.414a2.514 2.514 0 002.033-.72 2.495 2.495 0 00.72-2.033v-15.682a2.5 2.5 0 00-.72-2.033 2.5 2.5 0 00-2.033-.72h-2.33v21.177l2.33.011zM404.715 130.029h12.749v4.237h-8.26v8.248h6.567v4.23h-6.567v8.681h8.26v4.237h-12.749v-29.633zM431.147 130.029h4.496v25.414h8.007v4.236h-12.496l-.007-29.65zM458.384 153.102h-4.831l-.972 6.567h-4.489l4.912-29.65h6.015l4.912 29.65h-4.575l-.972-6.567zm-.594-4.311l-1.821-12.414-1.822 12.414h3.643zM478.164 130.029h4.956l5.718 19.908v-19.908h4.408v29.65H488.5l-5.929-18.976v18.976h-4.407v-29.65zM513.81 146.58a7.032 7.032 0 01.866 3.599v2.415c0 2.147-.635 3.863-1.907 5.148-1.271 1.285-2.977 1.927-5.117 1.927h-7.505v-29.64h7.116c2.145 0 3.851.642 5.118 1.927 1.266 1.285 1.901 3.001 1.903 5.148v1.566c0 2.653-1.002 4.546-3.005 5.676a5.51 5.51 0 012.531 2.234zm-9.173-12.325v8.054h1.992c1.071 0 1.867-.261 2.388-.784.521-.523.781-1.319.781-2.388v-2.119a2.5 2.5 0 00-.72-2.033 2.5 2.5 0 00-2.033-.719l-2.408-.011zm5.55 15.46c0-1.073-.262-1.869-.785-2.388-.523-.518-1.319-.779-2.388-.781h-2.388v8.893h2.798c.371.039.746-.005 1.098-.129a2.499 2.499 0 001.655-2.624l.01-2.971zM530.857 153.102h-4.81l-.976 6.567h-4.489l4.912-29.65h6.011l4.913 29.65h-4.572l-.989-6.567zm-.59-4.311l-1.832-12.421-1.812 12.421h3.644z" class="fill-white"></path></svg>