<svg xmlns="http://www.w3.org/2000/svg" width="1em" height="1em" fill="currentColor" viewBox="0 0 24 24" class="absolute left-1/2 top-1/2 h-[1em] w-[1em] -translate-x-1/2 -translate-y-1/2"><path fill="currentColor" d="M2 4.5C2 3.67 2.67 3 3.498 3h17.971c.829 0 1.498.67 1.498 1.5S22.297 6 21.469 6H3.498C2.669 6 2 5.33 2 4.5ZM2 12c0-.83.67-1.5 1.498-1.5h17.971c.829 0 1.498.67 1.498 1.5s-.67 1.5-1.498 1.5H3.498C2.669 13.5 2 12.83 2 12Zm20.967 7.5c0 .83-.67 1.5-1.498 1.5H3.498C2.669 21 2 20.33 2 19.5S2.67 18 3.498 18h17.971c.829 0 1.498.67 1.498 1.5Z"></path></svg>