<svg xmlns="http://www.w3.org/2000/svg" width="1em" height="1em" fill="currentColor" viewBox="0 0 24 24" class="absolute left-1/2 top-1/2 h-[1em] w-[1em] -translate-x-1/2 -translate-y-1/2"><g clip-path="url(#icon-news_svg__a)"><path fill="currentColor" d="M.255 9.012C.926 7.742 4.376 2 12 2c7.624 0 11.074 5.741 11.745 7.012.184.353.255.717.255 1.05v4.358c0 .949-.559 1.807-1.425 2.194l-3.615 1.608.773-5.422H18.52l-.27 1.886-.859 6a.6.6 0 0 1-1.034.323l-1.943-2.096-1.98 2.1a.596.596 0 0 1-.87 0l-1.98-2.1-1.946 2.096a.6.6 0 0 1-1.035-.323l-.859-6-.266-1.886H4.267l.777 5.422-3.619-1.608A2.402 2.402 0 0 1 0 14.42v-4.361c0-.334.068-.698.255-1.05v.003ZM6.69 12.8l.195 1.372 1.65-1.372H6.69Zm3.724 0-.023.019L12 14.547l1.605-1.728-.023-.019h-3.168Zm5.043 0 1.65 1.372.195-1.372h-1.845ZM7.2 6.8C6.536 6.8 6 7.336 6 8v1.8H4.2c-.33 0-.6.27-.6.6 0 .33.27.6.6.6H19.8c.33 0 .6-.27.6-.6 0-.33-.27-.6-.6-.6H18V8c0-.664-.536-1.2-1.2-1.2H7.2ZM16.8 8v1.8H7.2V8h9.6Zm-2.269 5.588-1.713 1.845 1.6 1.724 1.936-2.05-1.823-1.52Zm1.853 5.685.412-2.88-1.556 1.65 1.144 1.233v-.003ZM12 16.313l-1.598 1.722L12 19.726l1.598-1.695L12 16.314Zm-.818-.88L9.47 13.587l-1.826 1.518 1.935 2.051 1.6-1.725h.004ZM8.76 18.038l-1.556-1.65.412 2.88 1.144-1.234v.004Z"></path></g><defs><clipPath id="icon-news_svg__a"><path fill="#fff" d="M0 0h24v24H0z"></path></clipPath></defs></svg>