<svg xmlns="http://www.w3.org/2000/svg" width="1em" height="1em" fill="currentColor" viewBox="0 0 24 24" class="absolute left-1/2 top-1/2 h-[1em] w-[1em] -translate-x-1/2 -translate-y-1/2"><path fill="currentColor" d="M7 5h10v6H7z" opacity="0.2"></path><path fill="currentColor" d="M21 12v8.938C21 22.076 19.993 23 18.75 23H5.25C4.007 23 3 22.076 3 20.937V12c1.46-1.785 2.25-3.956 2.25-6.188V1.688c0-.38.336-.687.75-.687h1.5c.414 0 .75.308.75.688V6.5c0 1.898 1.68 3.438 3.75 3.438 2.07 0 3.75-1.54 3.75-3.438V1.687c0-.38.337-.687.75-.687H18c.414 0 .75.308.75.688v4.125c0 2.23.788 4.404 2.25 6.187Z"></path></svg>